<svg link="http://www.w3.org/1999/xlink" role="none" aria-hidden="true" xmlns="http://www.w3.org/2000/svg" width="24" height="24" viewBox="0 0 24 24" data-supported-dps="24x24" data-test-icon="compose-medium"><defs><svg xmlns="http://www.w3.org/2000/svg" viewBox="0 0 24 24" id="compose-medium" aria-hidden="true" role="none" data-supported-dps="24x24" fill="#0a66c2" fill-opacity="0.9">
  <path d="M19 12h2v6a3 3 0 01-3 3H6a3 3 0 01-3-3V6a3 3 0 013-3h6v2H6a1 1 0 00-1 1v12a1 1 0 001 1h12a1 1 0 001-1zm4-8a2.91 2.91 0 01-.87 2l-8.94 9L7 17l2-6.14 9-9A3 3 0 0123 4zm-4 2.35L17.64 5l-7.22 7.22 1.35 1.34z" fill-opacity="0.9"></path>
</svg></defs>
<!---->    
    <use href="#compose-medium" width="24" height="24" stroke-opacity="0" stroke="#000000" fill-opacity="0" fill="#0a66c2"></use>
</svg>